# xmcd CD database file
#
# Track frame offsets:
#	150
#	10234
#	23644
#	48694
#	62980
#	86748
#	100416
#	114845
#	138579
#	161083
#	176437
#	193133
#	210417
#
# Disc length: 2998 seconds
#
# Revision: 0
# Processed by: cddbd v1.5.2PL0 Copyright (c) Steve Scherf et al.
# Submitted via: CDex 1.81
#
DISCID=b20bb40d
DTITLE=Doctor Love Power And His Orchestra - Pawn Shop Diaries
DYEAR=2014
DGENRE=Blues
TTITLE0=Ruler of my heart
TTITLE1=Blues of their own
TTITLE2=Bright and sunny day
TTITLE3=Bootleg 
TTITLE4=Insane
TTITLE5=Jealous kind
TTITLE6=Log cabin blues
TTITLE7=The thrill is gone
TTITLE8=Too much of nothing
TTITLE9=Two more bottles of wine
TTITLE10=Icecreama
TTITLE11=Pink Shot
TTITLE12=Why Get Up
EXTD=YEAR: 2014
EXTT0=
EXTT1=
EXTT2=
EXTT3=
EXTT4=
EXTT5=
EXTT6=
EXTT7=
EXTT8=
EXTT9=
EXTT10=
EXTT11=
EXTT12=
PLAYORDER=
